# xmcd
#
# Track frame offsets:
#	150
#	10765
#	25424
#	36691
#	48218
#	63150
#	74059
#	84400
#	93709
#	105640
#	120102
#	134839
#	148901
#	162992
#	178220
#	194758
#	205845
#	218727
#	235763
#	249969
#	267642
#	280246
#	294681
#
# Disc length: 4078 seconds
#
# Revision: 0
# Processed by: cddbd v1.4PL0 Copyright (c) Steve Scherf et al.
# Submitted via: MusicWizard 6.0.0
#
DISCID=6b0fec17
DTITLE=Carter Family - Three Generations
DYEAR=1982
DGENRE=Country
TTITLE0=Pick A Messa Martin
TTITLE1=Sweet Memories
TTITLE2=You Are My Flower
TTITLE3=Let Me Be There
TTITLE4=Danny's Song
TTITLE5=Picture On The Wall
TTITLE6=Morning Sun
TTITLE7=Sugarfoot Rag
TTITLE8=Why You Been Gone So Long
TTITLE9=Lord I'm Wishing I Was Home
TTITLE10=Where No One Stands Alone
TTITLE11=Yankee Don't Do Home
TTITLE12=Woman's Touch
TTITLE13=Jesus
TTITLE14=Maybelle
TTITLE15=Baby Ride Easy (Chuck The Chuckwagon)
TTITLE16=Lovin' Me On His Mind
TTITLE17=Southern Cross
TTITLE18=Maybe You're The One
TTITLE19=Will The Circle Be Unbroken
TTITLE20=Gotta Move On
TTITLE21=Will You Remember Me
TTITLE22=The Moon Just Turned Blue
EXTD=
EXTT0=
EXTT1=
EXTT2=
EXTT3=
EXTT4=
EXTT5=
EXTT6=
EXTT7=
EXTT8=
EXTT9=
EXTT10=
EXTT11=
EXTT12=
EXTT13=
EXTT14=
EXTT15=
EXTT16=
EXTT17=
EXTT18=
EXTT19=
EXTT20=
EXTT21=
EXTT22=
PLAYORDER=
